<svg xmlns="http://www.w3.org/2000/svg" width="327.05" height="319.638" viewBox="0 0 327.05 319.638">
  <path id="github" d="M165.54,2a163.562,163.562,0,0,0-48.92,319.63c4.95.21,8.49-3.69,8.49-7.44,0-7.65-.12-31.63-.12-31.63s-19.88,6.57-40.07-2.6c-16.37-7.44-13.77-21.95-26.05-34.98-3.27-3.47-15.63-8.56-13.4-13.77,1.25-2.92,11.14-4.12,19.7,1.47s15.98,19.68,23.16,24.89c10.35,7.51,25.27,7.21,37.14,2.3,1.12-6.7,3.35-13.77,10.42-22.33-20.84-.37-64.37-11.16-72.19-55.81-4.23-24.18-4.09-48,14.51-68.84-4.46-11.91-4.09-29.02,1.86-43.53,20.47-.23,37.95,12.28,44.65,17.12,21.21-5.95,52.84-8.56,82.23,0,6.82-3.82,24.56-19.72,44.65-16.74a57.473,57.473,0,0,1,1.74,43.16c11.16,11.91,19.09,24.93,15.74,59.16-4.88,49.86-44.65,64.37-74.42,65.12,4.84,3.72,9.64,9.77,11.42,20.09,3.84,22.33-3.47,55.77,2.72,61.77,1.47,1.42,3.58,2.82,6.15,2.43A163.564,163.564,0,0,0,165.54,2Z" transform="translate(-2 -2)" fill="#f8ebac"/>
</svg>
