<svg id="instagram" xmlns="http://www.w3.org/2000/svg" width="318.19" height="318.19" viewBox="0 0 318.19 318.19">
  <path id="Path_9" data-name="Path 9" d="M231.19,318.19H87a87.1,87.1,0,0,1-87-87V87A87.1,87.1,0,0,1,87,0H231.19a87.1,87.1,0,0,1,87,87V231.18A87.1,87.1,0,0,1,231.19,318.19ZM87,30A57.064,57.064,0,0,0,30,87V231.18a57.064,57.064,0,0,0,57,57H231.19a57.064,57.064,0,0,0,57-57V87a57.064,57.064,0,0,0-57-57Z" fill="#f8ebac"/>
  <path id="Path_10" data-name="Path 10" d="M159.09,244.4a85.3,85.3,0,1,1,85.3-85.3A85.4,85.4,0,0,1,159.09,244.4Zm0-140.61a55.3,55.3,0,1,0,55.3,55.3A55.366,55.366,0,0,0,159.09,103.79Z" fill="#f8ebac"/>
  <circle id="Ellipse_2" data-name="Ellipse 2" cx="18.89" cy="18.89" r="18.89" transform="translate(226.52 55)" fill="#f8ebac"/>
</svg>
