<svg xmlns="http://www.w3.org/2000/svg" width="386.75" height="315.395" viewBox="0 0 386.75 315.395">
  <path id="twitter" d="M27.15,17.21c18.42,18.42,78.83,78.54,165.26,82.05-8.18-44.3,19.31-94.41,67-97.07,39.65-2.22,61.6,16.7,67.46,24.24,10.92,1.1,35.85-8.93,49.56-17.58-1.22,9.89-16.91,34.41-30.3,41.07,15.75-.44,28.37-4.66,43.01-10.25-10.7,16.52-28.44,33.48-39.66,38.32,3.69,16.44-1.19,99.36-61.12,167.8C237.11,304.29,119.4,352.93,2.39,282.6c39.15-3.35,78.53.25,115.18-34.33-17.58-2.51-58.44-14.23-73.51-54.42,14.23.84,21.19-1.15,38.35-1.67-29.3-10.88-62.79-28.47-66.98-79.53,10.05,5.02,24.49,6.6,35.16,8.37C33.84,106.79,1.39,63.25,27.15,17.21Z" transform="translate(-2.39 -2.01)" fill="#f8ebac"/>
</svg>
