<svg id="yelp" xmlns="http://www.w3.org/2000/svg" width="221.239" height="293.836" viewBox="0 0 221.239 293.836">
  <path id="Path_1" data-name="Path 1" d="M100.39,213.74c9.22-9.06,22.2.04,22.2,9.02v65.67c0,6.99-5.96,11.62-16.68,11.01-12.96-.65-39.55-10.6-47.12-17.03s-6.5-16.67-2.51-21.05,40.99-45.11,44.11-47.62Z" transform="translate(-9.643 -5.657)" fill="#f8ebac"/>
  <path id="Path_2" data-name="Path 2" d="M139.63,217.26c-5.77-11.57,6.89-21.1,15.44-18.32s55.81,18.13,62.45,20.29,9.21,9.26,5.32,19.27c-4.62,12.13-22.3,34.33-30.76,39.55s-17.86,1.03-20.8-4.12S141.05,221,139.63,217.26Z" transform="translate(-9.643 -5.657)" fill="#f8ebac"/>
  <path id="Path_3" data-name="Path 3" d="M156.39,181.31c-12.78,1.91-17.94-13.08-12.66-20.35s34.49-47.48,38.6-53.13,11.65-5.9,19.97.9c10.11,8.14,25.76,31.82,28.11,41.47s-4.54,17.3-10.35,18.51-59.67,12.41-63.67,12.6Z" transform="translate(-9.643 -5.657)" fill="#f8ebac"/>
  <path id="Path_4" data-name="Path 4" d="M126.91,153.44c-2.13,12.75-17.98,13.02-23.26,5.75S43.84,48.46,39.74,42.81s-2.01-12.9,7.03-18.72c10.87-7.1,54.7-19.14,64.6-18.4s15.05,9.66,14.4,15.56,2.19,128.33,1.14,132.19Z" transform="translate(-9.643 -5.657)" fill="#f8ebac"/>
  <path id="Path_5" data-name="Path 5" d="M91.43,175.36c11.46,5.97,6.83,21.12-1.72,23.9S33.9,217.4,27.25,219.56s-12.89-2.08-15.63-12.47c-3.39-12.53-2.14-40.89,1.63-50.08s13.84-11.33,19.25-8.89S88.08,173.17,91.43,175.36Z" transform="translate(-9.643 -5.657)" fill="#f8ebac"/>
</svg>
